<svg width="18" height="18" viewBox="0 0 18 18" fill="none" xmlns="http://www.w3.org/2000/svg">
<path d="M14.0625 3.375H9.5625V1.125C9.5625 0.975816 9.50324 0.832742 9.39775 0.727252C9.29226 0.621763 9.14918 0.5625 9 0.5625C8.85082 0.5625 8.70774 0.621763 8.60225 0.727252C8.49676 0.832742 8.4375 0.975816 8.4375 1.125V3.375H3.9375C3.34076 3.375 2.76847 3.61205 2.34651 4.03401C1.92455 4.45597 1.6875 5.02826 1.6875 5.625V13.5C1.6875 14.0967 1.92455 14.669 2.34651 15.091C2.76847 15.5129 3.34076 15.75 3.9375 15.75H14.0625C14.6592 15.75 15.2315 15.5129 15.6535 15.091C16.0754 14.669 16.3125 14.0967 16.3125 13.5V5.625C16.3125 5.02826 16.0754 4.45597 15.6535 4.03401C15.2315 3.61205 14.6592 3.375 14.0625 3.375ZM12.0938 6.75C12.2606 6.75 12.4238 6.79948 12.5625 6.8922C12.7013 6.98491 12.8094 7.11669 12.8733 7.27086C12.9371 7.42504 12.9538 7.59469 12.9213 7.75836C12.8887 7.92203 12.8084 8.07237 12.6904 8.19037C12.5724 8.30837 12.422 8.38873 12.2584 8.42129C12.0947 8.45384 11.925 8.43713 11.7709 8.37327C11.6167 8.30941 11.4849 8.20127 11.3922 8.06251C11.2995 7.92376 11.25 7.76063 11.25 7.59375C11.25 7.36997 11.3389 7.15536 11.4971 6.99713C11.6554 6.83889 11.87 6.75 12.0938 6.75ZM6.75 12.9375H5.625C5.32663 12.9375 5.04048 12.819 4.8295 12.608C4.61853 12.397 4.5 12.1109 4.5 11.8125C4.5 11.5141 4.61853 11.228 4.8295 11.017C5.04048 10.806 5.32663 10.6875 5.625 10.6875H6.75V12.9375ZM5.90625 8.4375C5.73937 8.4375 5.57624 8.38802 5.43749 8.2953C5.29873 8.20259 5.19059 8.07081 5.12673 7.91664C5.06287 7.76246 5.04616 7.59281 5.07871 7.42914C5.11127 7.26547 5.19163 7.11513 5.30963 6.99713C5.42763 6.87913 5.57797 6.79877 5.74164 6.76621C5.90531 6.73366 6.07496 6.75037 6.22914 6.81423C6.38331 6.87809 6.51509 6.98623 6.6078 7.12499C6.70052 7.26374 6.75 7.42687 6.75 7.59375C6.75 7.81753 6.66111 8.03214 6.50287 8.19037C6.34464 8.34861 6.13003 8.4375 5.90625 8.4375ZM10.125 12.9375H7.875V10.6875H10.125V12.9375ZM12.375 12.9375H11.25V10.6875H12.375C12.6734 10.6875 12.9595 10.806 13.1705 11.017C13.3815 11.228 13.5 11.5141 13.5 11.8125C13.5 12.1109 13.3815 12.397 13.1705 12.608C12.9595 12.819 12.6734 12.9375 12.375 12.9375Z" fill="white"/>
</svg>
